<?xml version="1.0" encoding="iso-8859-1"?>
<!-- Generator: Adobe Illustrator 19.0.0, SVG Export Plug-In . SVG Version: 6.00 Build 0)  -->
<svg version="1.1" id="Layer_1" xmlns="http://www.w3.org/2000/svg" xmlns:xlink="http://www.w3.org/1999/xlink" x="0px" y="0px"
	 viewBox="0 0 511.935 511.935" style="enable-background:new 0 0 511.935 511.935;" xml:space="preserve">
<g>
	<g>
		<path d="M479.92,490.371c0-0.203-0.016-0.406-0.031-0.594c-0.016-0.156-0.031-0.313-0.047-0.484s-0.047-0.359-0.078-0.547
			c-0.031-0.156-0.063-0.328-0.094-0.5c-0.047-0.156-0.094-0.344-0.141-0.5c-0.047-0.172-0.094-0.344-0.141-0.5
			c-0.063-0.156-0.125-0.328-0.188-0.5c-0.063-0.156-0.125-0.313-0.188-0.469c-0.078-0.156-0.156-0.313-0.234-0.469
			s-0.156-0.313-0.234-0.469c-0.094-0.141-0.172-0.281-0.266-0.438c-0.109-0.156-0.203-0.297-0.313-0.438
			c-0.094-0.141-0.188-0.281-0.297-0.406c-0.109-0.156-0.234-0.297-0.359-0.438c-0.047-0.063-0.094-0.125-0.156-0.188
			l-77.191-84.926c37.822-38.182,58.633-88.77,58.633-142.543c0-54.125-21.076-105.017-59.352-143.285
			c-32.902-32.909-75.131-53.086-120.734-58.108c-0.078-0.008-0.141-0.016-0.219-0.023c-7.357-0.805-14.811-1.219-22.324-1.219
			c-7.515,0-14.951,0.414-22.325,1.219c-0.078,0.008-0.172,0.016-0.25,0.031c-45.588,5.015-87.816,25.199-120.718,58.101
			c-38.275,38.27-59.351,89.162-59.351,143.287c0,53.773,20.825,104.361,58.633,142.543l-21.544,23.715
			c-0.125-0.125-0.25-0.219-0.359-0.344c-44.322-44.32-68.725-103.234-68.725-165.914c0-5.89-4.781-10.662-10.671-10.662
			c-5.89,0-10.654,4.772-10.654,10.662c0,34.559,6.765,68.084,20.122,99.643c12.889,30.465,31.34,57.852,54.836,81.348
			c0.359,0.359,0.734,0.703,1.094,1.063l-41.291,45.416c-0.047,0.063-0.094,0.125-0.141,0.188c-0.141,0.141-0.25,0.281-0.375,0.438
			c-0.109,0.125-0.203,0.25-0.297,0.391c-0.109,0.156-0.203,0.297-0.297,0.453c-0.094,0.156-0.188,0.297-0.266,0.438
			c-0.094,0.156-0.172,0.313-0.25,0.469s-0.156,0.313-0.219,0.469c-0.078,0.156-0.141,0.313-0.203,0.484
			c-0.063,0.156-0.125,0.328-0.172,0.484c-0.063,0.156-0.109,0.328-0.156,0.5c-0.047,0.156-0.094,0.344-0.125,0.5
			c-0.047,0.172-0.063,0.344-0.094,0.5c-0.031,0.188-0.063,0.375-0.094,0.547c-0.016,0.172-0.031,0.328-0.047,0.484
			c-0.016,0.188-0.016,0.391-0.031,0.578c0,0.078,0,0.172,0,0.234c0,0.094,0,0.172,0,0.25c0.016,0.188,0.016,0.375,0.031,0.563
			c0.016,0.172,0.031,0.344,0.047,0.516c0.031,0.172,0.063,0.328,0.078,0.514c0.031,0.172,0.063,0.344,0.109,0.531
			c0.031,0.156,0.078,0.313,0.125,0.469c0.047,0.172,0.094,0.344,0.156,0.531c0.047,0.156,0.109,0.313,0.172,0.469
			s0.125,0.313,0.188,0.484c0.078,0.156,0.156,0.313,0.234,0.469c0.078,0.141,0.156,0.297,0.234,0.453
			c0.094,0.156,0.188,0.313,0.281,0.469c0.094,0.125,0.172,0.266,0.266,0.406c0.109,0.141,0.219,0.281,0.328,0.438
			c0.109,0.125,0.219,0.25,0.328,0.391c0.109,0.125,0.219,0.25,0.344,0.375c0.125,0.141,0.266,0.266,0.391,0.406
			c0.063,0.047,0.109,0.109,0.172,0.172s0.141,0.094,0.203,0.156c0.125,0.125,0.266,0.219,0.391,0.328
			c0.141,0.109,0.281,0.219,0.422,0.313c0.125,0.094,0.266,0.188,0.391,0.266c0.156,0.109,0.313,0.203,0.468,0.281
			c0.141,0.094,0.266,0.156,0.406,0.234c0.172,0.078,0.328,0.172,0.5,0.234c0.141,0.063,0.281,0.125,0.422,0.188
			c0.172,0.063,0.344,0.125,0.531,0.188c0.141,0.063,0.281,0.094,0.422,0.141c0.188,0.047,0.375,0.109,0.563,0.141
			c0.141,0.031,0.281,0.078,0.422,0.094c0.219,0.047,0.422,0.078,0.641,0.109c0.125,0.016,0.25,0.031,0.375,0.047
			c0.328,0.031,0.672,0.063,1.016,0.063h85.332c5.89,0,10.654-4.781,10.654-10.686c0-5.875-4.765-10.656-10.654-10.656H66.774
			l25.044-27.559c19.435,16.279,41.041,29.512,64.507,39.434c31.542,13.342,65.038,20.121,99.564,20.121c0.031,0,0.047,0,0.078,0
			c5.889,0,10.654-4.781,10.654-10.654c0-5.906-4.766-10.686-10.654-10.686c-0.031,0-0.047,0.016-0.078,0.016v-0.016
			c-55.32,0-107.704-19.061-149.714-54.01l21.544-23.699c30.309,24.871,66.771,40.182,105.688,44.479
			c0.078,0.016,0.156,0.016,0.219,0.016c7.374,0.813,14.826,1.219,22.341,1.219c7.514,0,14.967-0.406,22.324-1.219
			c0.078,0,0.141,0,0.219-0.016c38.918-4.297,75.381-19.607,105.689-44.479l60.961,67.053h-61.211
			c-5.891,0-10.67,4.781-10.67,10.656c0,5.904,4.779,10.686,10.67,10.686h85.316c0.344,0,0.688-0.031,1.031-0.063
			c0.125-0.016,0.25-0.031,0.375-0.047c0.203-0.031,0.422-0.063,0.625-0.109c0.156-0.016,0.297-0.063,0.438-0.094
			c0.188-0.031,0.359-0.094,0.547-0.141c0.156-0.047,0.297-0.094,0.438-0.141c0.172-0.063,0.344-0.125,0.516-0.188
			c0.156-0.063,0.297-0.125,0.422-0.188c0.172-0.063,0.344-0.156,0.5-0.234c0.141-0.078,0.281-0.141,0.406-0.234
			c0.154-0.078,0.311-0.172,0.467-0.281c0.141-0.078,0.266-0.172,0.406-0.266s0.281-0.203,0.406-0.313
			c0.141-0.109,0.266-0.203,0.406-0.328c0.063-0.063,0.125-0.094,0.188-0.156s0.109-0.125,0.172-0.172
			c0.141-0.141,0.266-0.266,0.406-0.406c0.109-0.125,0.234-0.25,0.344-0.375c0.109-0.141,0.219-0.266,0.328-0.391
			c0.109-0.156,0.219-0.297,0.313-0.438s0.188-0.281,0.266-0.406c0.109-0.156,0.203-0.313,0.297-0.469
			c0.078-0.156,0.156-0.297,0.219-0.453c0.094-0.156,0.172-0.313,0.234-0.484c0.078-0.156,0.141-0.313,0.203-0.469
			s0.109-0.313,0.172-0.469c0.047-0.188,0.109-0.359,0.156-0.531c0.031-0.156,0.078-0.313,0.109-0.469
			c0.047-0.188,0.078-0.359,0.109-0.531c0.031-0.186,0.063-0.342,0.078-0.514s0.031-0.344,0.047-0.516
			c0.016-0.188,0.031-0.375,0.031-0.563c0-0.078,0.016-0.156,0.016-0.25C479.936,490.528,479.92,490.434,479.92,490.371z
			 M223.971,434.473c-10.764-1.906-21.278-4.781-31.417-8.563l16.263-9.123c3.188,0.484,6.78,0.719,10.905,0.719
			c1.375,0,2.796-0.031,4.249-0.078V434.473z M223.971,396.086c-1.469,0.063-2.89,0.094-4.249,0.094c-5.327,0-8.358-0.5-9.952-0.922
			c-49.54-13.092-57.32-29.559-58.398-32.822c1.625-10.578,7.046-19.561,15.732-26.076c9.452-7.092,21.997-10.826,36.276-10.826
			c1.5,0,3.016,0.047,4.547,0.125c1.218,0.078,2.515,0.109,3.858,0.109c3.702,0,7.812-0.281,12.186-0.75V396.086z M223.971,303.584
			c-4.452,0.531-8.593,0.844-12.186,0.844c-0.953,0-1.859-0.031-2.688-0.063c-1.905-0.109-3.827-0.156-5.718-0.156
			c-18.919,0-35.886,5.217-49.056,15.076c-11.264,8.436-18.919,19.605-22.497,32.666h-4.921c-5.89,0-10.671,4.781-10.671,10.656
			c0,5.904,4.781,10.686,10.671,10.686h5.89c1.672,3.406,4.312,7.373,8.452,11.654c8.733,8.967,21.841,16.779,39.119,23.34
			l-11.795,6.609c-11.936-6.578-23.153-14.545-33.495-23.809c-0.313-0.359-0.641-0.719-1-1.047
			c-0.344-0.328-0.719-0.609-1.094-0.875c-1.766-1.625-3.515-3.281-5.218-5c-34.243-34.243-53.116-79.768-53.116-128.2
			c0-48.431,18.873-93.964,53.118-128.201c26.574-26.582,59.944-43.885,96.205-50.306V303.584z M266.621,436.955
			c-3.531,0.203-7.092,0.328-10.654,0.328c-3.578,0-7.124-0.125-10.671-0.328V74.975c3.547-0.203,7.093-0.32,10.671-0.32
			c3.563,0,7.123,0.117,10.654,0.32V436.955z M321.489,425.129c-10.795,4.172-22.028,7.313-33.526,9.344v-27.092
			c13.998-3.154,26.902-6.451,36.307-8.967L321.489,425.129z M287.962,385.495v-73.881c4.373-1.219,7.201-2.047,7.67-2.188
			c0.328-0.094,0.656-0.219,0.984-0.344c4.205-1.701,10.468-4.123,17.734-6.779c2.453,2.594,4.67,4.313,5.514,4.938
			c1.906,1.373,4.109,2.061,6.297,2.061c3.281,0,6.529-1.531,8.607-4.373c3.484-4.766,2.453-11.438-2.313-14.904
			c-1.842-1.344-5.576-5.266-5.857-7.625c-0.031-0.188-0.063-0.484,0.609-1.281c1.656-1.969,2.813-2.016,3.438-2.031
			c4.107-0.17,10.576,4.406,13.654,7.531c2.654,2.734,6.404,3.734,9.873,3c0.031,0,0.063-0.016,0.094-0.031
			c0.234-0.047,0.484-0.094,0.734-0.188c8.107-2.031,15.342-3.359,20.418-3.359c0.813,0,1.531,0.031,2.109,0.109
			c6.828,0.891,12.342,2.078,16.576,3.219l-4.313,7.154c-2.139,3.578-1.998,8.063,0.344,11.498l0.359,0.547
			c-6.357,8.609-17.012,19.139-27.371,29.371c-12.498,12.357-25.387,25.076-33.416,36.855
			C322.643,376.778,306.505,381.198,287.962,385.495z M344.033,414.521l1.75-16.779l16.84,4.875
			C356.656,406.976,350.453,410.943,344.033,414.521z M384.168,384.166c-0.641,0.656-1.297,1.281-1.953,1.906l-28.027-8.107
			c6.732-7.875,15.42-16.451,23.918-24.857c14.311-14.139,27.84-27.496,34.527-39.463c1.969-3.531,1.766-7.873-0.5-11.217
			l-0.531-0.766l7.451-12.404c1.484-2.484,1.906-5.453,1.156-8.25c-0.75-2.795-2.592-5.17-5.123-6.576
			c-1.188-0.656-12.232-6.5-34.824-9.438c-1.484-0.186-3.109-0.287-4.844-0.287c-5.654,0-12.795,1.1-20.543,2.834
			c-5.391-4.287-14.67-10.115-24.934-9.779c-7.375,0.25-13.951,3.57-19.045,9.6c-3.875,4.602-5.797,9.945-5.625,15.537
			c-7.904,2.906-13.842,5.281-16.168,6.219c-0.281,0.078-0.656,0.188-1.141,0.328V77.458c36.244,6.421,69.631,23.724,96.205,50.306
			c34.245,34.237,53.103,79.77,53.103,128.201C437.27,304.397,418.413,349.922,384.168,384.166z"/>
	</g>
</g>
<g>
	<g>
		<path d="M491.809,156.33c-12.889-30.479-31.34-57.859-54.852-81.355c-23.496-23.505-50.883-41.963-81.363-54.853
			C324.035,6.773,290.508,0,255.967,0c-5.89,0-10.671,4.773-10.671,10.663s4.781,10.67,10.671,10.67
			c62.662,0,121.592,24.403,165.914,68.718c44.307,44.321,68.709,103.243,68.709,165.914c0,5.891,4.781,10.67,10.672,10.67
			c5.889,0,10.67-4.779,10.67-10.67C511.932,221.415,505.151,187.889,491.809,156.33z"/>
	</g>
</g>
<g>
	<g>
		<path d="M362.608,287.961c-5.889,0-10.654,4.781-10.654,10.654c-0.001,5.907,4.765,10.686,10.654,10.686
			c5.891,0,10.672-4.779,10.672-10.686C373.28,292.742,368.499,287.961,362.608,287.961z"/>
	</g>
</g>
<g>
</g>
<g>
</g>
<g>
</g>
<g>
</g>
<g>
</g>
<g>
</g>
<g>
</g>
<g>
</g>
<g>
</g>
<g>
</g>
<g>
</g>
<g>
</g>
<g>
</g>
<g>
</g>
<g>
</g>
</svg>
